<?xml version="1.0" standalone="no"?>
<!DOCTYPE svg PUBLIC "-//W3C//DTD SVG 20010904//EN"
 "http://www.w3.org/TR/2001/REC-SVG-20010904/DTD/svg10.dtd">
<svg version="1.0" xmlns="http://www.w3.org/2000/svg"
 width="360.000000pt" height="360.000000pt" viewBox="0 0 360.000000 360.000000"
 preserveAspectRatio="xMidYMid meet">
<metadata>
Created by potrace 1.14, written by Peter Selinger 2001-2017
</metadata>
<g transform="translate(0.000000,360.000000) scale(0.100000,-0.100000)"
fill="#000000" stroke="none">
<path d="M1633 2540 c-29 -12 -63 -67 -63 -100 0 -45 34 -94 74 -107 51 -17
91 -6 127 35 28 31 31 41 26 80 -7 59 -40 93 -98 98 -24 2 -54 0 -66 -6z"/>
<path d="M1825 2345 l-130 -75 70 0 c132 0 133 -1 241 -119 89 -97 162 -176
253 -273 19 -21 32 -41 28 -44 -4 -4 -16 5 -28 20 -12 15 -23 25 -25 24 -4 -5
-154 -484 -154 -494 0 -15 18 11 53 76 19 36 69 124 110 195 71 122 75 131 59
148 -11 12 -13 21 -6 25 7 4 -28 75 -93 187 -181 315 -235 405 -241 405 -4 0
-65 -34 -137 -75z"/>
<path d="M2234 2311 c-83 -51 -64 -168 34 -202 43 -15 100 13 126 62 18 32 18
41 7 78 -21 73 -101 102 -167 62z"/>
<path d="M1340 2110 c0 -82 2 -150 4 -150 5 0 152 258 162 284 5 14 -5 16 -80
16 l-86 0 0 -150z"/>
<path d="M1535 2203 c-9 -31 -14 -57 -12 -60 3 -2 70 10 149 28 78 17 164 36
191 42 45 9 61 23 35 32 -7 2 -88 5 -180 8 l-167 4 -16 -54z"/>
<path d="M1493 2182 c-11 -20 -63 -111 -116 -202 l-95 -165 36 -40 c20 -22 39
-41 43 -43 4 -2 28 63 54 145 25 81 60 190 76 242 17 51 28 95 26 97 -2 2 -13
-13 -24 -34z"/>
<path d="M1114 2096 c-93 -93 16 -233 135 -172 71 37 68 157 -6 195 -44 22
-92 14 -129 -23z"/>
<path d="M2201 2053 c18 -32 56 -98 85 -146 l51 -89 20 34 c41 67 66 118 62
121 -11 10 -238 137 -244 137 -4 0 8 -26 26 -57z"/>
<path d="M1221 1710 c-22 -40 -41 -75 -41 -78 1 -10 241 -144 248 -138 3 3 -2
14 -10 23 -8 10 -38 59 -66 109 -28 51 -60 106 -70 124 l-20 31 -41 -71z"/>
<path d="M1304 1747 c10 -16 63 -108 118 -205 55 -97 102 -179 103 -180 4 -4
117 19 124 24 2 2 -25 34 -61 71 -35 37 -102 109 -148 158 -46 50 -99 106
-118 125 -32 32 -34 32 -18 7z"/>
<path d="M2329 1661 c-24 -25 -29 -38 -29 -78 1 -73 42 -113 115 -113 52 0
105 53 105 104 0 75 -42 116 -120 116 -33 0 -48 -6 -71 -29z"/>
<path d="M2171 1497 c-45 -79 -81 -146 -81 -150 0 -4 38 -7 85 -7 l85 0 0 150
c0 83 -2 150 -4 150 -2 0 -40 -64 -85 -143z"/>
<path d="M1260 1482 c-20 -9 -44 -33 -54 -53 -18 -32 -18 -41 -7 -78 21 -73
101 -102 167 -62 81 49 65 165 -29 200 -36 14 -36 14 -77 -7z"/>
<path d="M1818 1406 c-124 -28 -230 -54 -234 -59 -4 -4 98 -7 228 -7 l234 0
17 53 c9 30 17 57 17 60 0 11 -26 7 -262 -47z"/>
<path d="M1550 1324 c0 -9 82 -144 87 -144 9 0 253 141 253 146 0 2 -76 4
-170 4 -93 0 -170 -3 -170 -6z"/>
<path d="M1883 1273 c-12 -2 -36 -20 -54 -40 -28 -32 -31 -41 -26 -81 6 -56
40 -92 94 -99 110 -15 173 108 98 190 -14 15 -31 27 -38 27 -7 0 -21 2 -32 4
-11 2 -30 2 -42 -1z"/>
</g>
</svg>
